<svg xmlns="http://www.w3.org/2000/svg" width="512" height="512" viewBox="132 130 504 504" role="img" aria-label="Subtitle UI favicon">
  <defs>
    <linearGradient id="cardTopGrad" x1="0%" y1="0%" x2="0%" y2="100%">
      <stop offset="0%" stop-color="#2e3957"/>
      <stop offset="100%" stop-color="#232f4c"/>
    </linearGradient>

    <linearGradient id="cardBottomGrad" x1="0%" y1="0%" x2="0%" y2="100%">
      <stop offset="0%" stop-color="#121a30"/>
      <stop offset="100%" stop-color="#0f172a"/>
    </linearGradient>

    <linearGradient id="cardStrokeGrad" x1="0%" y1="0%" x2="100%" y2="100%">
      <stop offset="0%" stop-color="#7f8eb3" stop-opacity="0.55"/>
      <stop offset="100%" stop-color="#6b7fa8" stop-opacity="0.25"/>
    </linearGradient>

    <clipPath id="cardClip">
      <rect x="134" y="132" width="500" height="500" rx="120"/>
    </clipPath>
  </defs>

  <g clip-path="url(#cardClip)">
    <rect x="134" y="132" width="500" height="500" rx="120" fill="url(#cardTopGrad)"/>
    <rect x="134" y="518" width="500" height="114" fill="url(#cardBottomGrad)"/>
    <line x1="134" y1="518" x2="634" y2="518" stroke="#7385ad" stroke-opacity="0.42" stroke-width="2"/>
    <ellipse cx="384" cy="176" rx="190" ry="52" fill="#5f7198" fill-opacity="0.08"/>
  </g>
  <rect x="134" y="132" width="500" height="500" rx="120" fill="none" stroke="url(#cardStrokeGrad)" stroke-width="3"/>

  <path d="M206 200 L206 242 Q206 248 211 245 L246 223 Q250 220 246 217 L211 195 Q206 192 206 200 Z" fill="#eef4ff"/>
  <line x1="216" y1="556" x2="552" y2="556" stroke="#35dcf2" stroke-width="20" stroke-linecap="round"/>
  <line x1="216" y1="590" x2="552" y2="590" stroke="#35dcf2" stroke-width="20" stroke-linecap="round"/>
</svg>
