<svg xmlns="http://www.w3.org/2000/svg" width="768" height="768" viewBox="0 0 512 512" role="img" aria-label="Subtitle UI icon">
  <defs>
    <linearGradient id="bg" x1="8%" y1="4%" x2="92%" y2="96%">
      <stop offset="0%" stop-color="#334b71"/>
      <stop offset="52%" stop-color="#182b49"/>
      <stop offset="100%" stop-color="#0a1324"/>
    </linearGradient>
    <radialGradient id="shine" cx="22%" cy="14%" r="74%">
      <stop offset="0%" stop-color="#9bcbff" stop-opacity="0.34"/>
      <stop offset="100%" stop-color="#9bcbff" stop-opacity="0"/>
    </radialGradient>
    <linearGradient id="caption" x1="0%" y1="0%" x2="100%" y2="0%">
      <stop offset="0%" stop-color="#49e7ff"/>
      <stop offset="100%" stop-color="#10bbff"/>
    </linearGradient>
    <linearGradient id="play" x1="0%" y1="0%" x2="0%" y2="100%">
      <stop offset="0%" stop-color="#ffffff"/>
      <stop offset="100%" stop-color="#dbe9fb"/>
    </linearGradient>
    <filter id="cardShadow" x="-20%" y="-20%" width="140%" height="160%">
      <feDropShadow dx="0" dy="14" stdDeviation="20" flood-color="#040914" flood-opacity="0.3"/>
    </filter>
    <filter id="playShadow" x="-30%" y="-30%" width="170%" height="170%">
      <feDropShadow dx="0" dy="10" stdDeviation="12" flood-color="#08101d" flood-opacity="0.34"/>
    </filter>
    <filter id="captionShadow" x="-20%" y="-30%" width="140%" height="180%">
      <feDropShadow dx="0" dy="10" stdDeviation="12" flood-color="#04101a" flood-opacity="0.25"/>
    </filter>
  </defs>

  <g filter="url(#cardShadow)">
    <rect x="34" y="34" width="444" height="444" rx="112" fill="url(#bg)"/>
    <rect x="34" y="34" width="444" height="444" rx="112" fill="url(#shine)"/>
    <path d="M63 84 C126 54 218 54 292 86" fill="none" stroke="#b6cfff" stroke-opacity="0.11" stroke-width="18" stroke-linecap="round"/>
    <rect x="34" y="34" width="444" height="444" rx="112" fill="none" stroke="#8ea9ce" stroke-opacity="0.28" stroke-width="6"/>
  </g>

  <path
    d="M172 132 L172 318 Q172 334 186 326 L339 240 Q353 232 353 224 Q353 216 339 208 L186 122 Q172 114 172 132 Z"
    fill="url(#play)"
    filter="url(#playShadow)"
  />

  <g filter="url(#captionShadow)">
    <rect x="96" y="334" width="320" height="94" rx="47" fill="url(#caption)"/>
    <rect x="145" y="372" width="91" height="16" rx="8" fill="#092032" fill-opacity="0.75"/>
    <rect x="253" y="372" width="114" height="16" rx="8" fill="#092032" fill-opacity="0.75"/>
  </g>
</svg>
